<?xml version="1.0" encoding="UTF-8"?>
<svg id="Layer_1" data-name="Layer 1" xmlns="http://www.w3.org/2000/svg" viewBox="0 0 474.66 348.66">
  <defs>
    <style>
      .cls-1 {
        fill: #ee3426;
      }
    </style>
  </defs>
  <g>
    <polygon class="cls-1" points="142.66 269.78 144.33 296.57 144.2 296.62 131.97 272.71 122.17 275.39 134.06 318.78 140.56 317 131.26 283.11 131.38 283.09 147.4 315.13 151.01 314.14 148.45 278.4 148.57 278.37 157.86 312.26 164.35 310.48 152.46 267.09 142.66 269.78"/>
    <path class="cls-1" d="M182.03,270.3c-1.68-6.14-6.65-10.14-14.47-7.99-7.81,2.14-10.04,8.12-8.36,14.25l6.13,22.36c1.68,6.12,6.65,10.12,14.47,7.97,7.81-2.14,10.05-8.11,8.36-14.24l-6.13-22.35ZM178,300.41c-2.99.82-4.39-.48-5.28-3.73l-6.02-22c-.89-3.23-.36-5.08,2.65-5.89,3-.83,4.39.48,5.28,3.71l6.02,22.01c.89,3.25.36,5.06-2.65,5.89"/>
    <polygon class="cls-1" points="199.47 254.2 206.26 279.02 206.15 279.06 190.26 256.73 183.36 258.63 195.26 302.01 201.98 300.16 194.55 273.06 194.67 273.02 211.59 297.53 218.09 295.74 206.2 252.36 199.47 254.2"/>
    <polygon class="cls-1" points="232.88 245.05 225.43 247.09 222.02 265.27 221.89 265.31 217.51 249.27 210.04 251.31 221.94 294.68 229.39 292.64 225.18 277.26 226.51 271.74 226.62 271.7 238.23 290.23 245.8 288.16 229.28 263.42 232.88 245.05"/>
    <polygon class="cls-1" points="251.66 279.56 248.17 266.82 257.78 264.19 255.99 257.7 246.38 260.34 243.32 249.16 255.82 245.73 254.04 239.25 234.09 244.71 245.98 288.1 266.78 282.4 265 275.91 251.66 279.56"/>
    <polygon class="cls-1" points="278.18 259.89 280.24 232.06 272.67 234.14 272.22 252.04 272.1 252.07 262.34 236.97 254.77 239.05 270.73 261.93 275.68 279.96 283.13 277.92 278.18 259.89"/>
    <path d="M16.4,315.31c-.74-2.7.15-4.63,2.56-5.28,1.68-.47,3.96.07,5.28,3.72l6.88-2.72c-2.35-5.95-7.14-9.35-13.22-7.68-7.34,1.99-10.46,7.06-8.58,13.98,3.41,12.42,19.18,10.58,21.54,19.17.71,2.58-.65,4.44-3.24,5.14-2.41.66-4.74-1.02-6.25-5.33l-6.81,2.97c2.08,6.4,7.56,10.85,14.47,8.95,6.97-1.89,10.68-7.2,8.73-14.35-3.23-11.77-19.35-11.18-21.37-18.57"/>
    <polygon points="47.52 295.86 54.32 320.68 54.2 320.72 38.32 298.38 31.41 300.28 43.3 343.66 50.04 341.82 42.6 314.72 42.72 314.69 59.65 339.18 66.13 337.4 54.25 294.02 47.52 295.86"/>
    <path d="M84.18,297.12c-1.69-6.14-6.66-10.14-14.47-7.99-7.81,2.14-10.06,8.12-8.38,14.25l6.13,22.36c1.68,6.12,6.66,10.12,14.46,7.99,7.82-2.14,10.05-8.11,8.37-14.25l-6.12-22.35ZM80.16,327.24c-3.01.82-4.4-.49-5.28-3.73l-6.03-21.99c-.9-3.25-.36-5.09,2.64-5.9,3.01-.83,4.41.48,5.29,3.72l6.03,21.98c.9,3.25.36,5.09-2.65,5.91"/>
    <polygon points="105.46 295.8 105.59 295.76 118.86 322.95 125.1 321.24 120.84 275.76 113.87 277.67 117.3 306.44 117.18 306.48 104.56 280.23 98.43 281.9 101.14 310.88 101.02 310.92 88.87 284.52 81.9 286.44 102.03 327.57 108.27 325.85 105.46 295.8"/>
    <path d="M209.42,45.76c-1.1,4.11-1.75,8.39-1.94,12.56-.9.63-1.95,1.02-3.16,1.08-4.38.22-9.01-3.99-9.22-8.38-.21-4.37,3.11-8.72,7.48-8.97.02,0,.03,0,.05,0h.03c.19,0,.37.01.55.02,2.4.09,4.54,1.42,5.98,3.35.04.06.09.11.13.18.04.05.07.09.11.14,0,0,0,.01,0,.02M452.01,169.29c-4.07,2.54-66.73,19.49-129.72,36.8,2.6-2.7,3.99-6.27,3.45-9.96-.24-1.69-.87-3.25-1.79-4.62,1.26-4,1.45-8.77-.24-14.35-.52-1.71-1.18-3.64-1.94-5.74L361.35,8.92c3.08.59,5.61.45,5.82-.4.18-.83-2.01-2.06-5.02-2.87l.38-1.54-.37-4.11-1.42,5.32c-3.2-.65-5.86-.52-6.05.35-.19.87,2.07,2.11,5.18,2.92l-41.19,154.81c-11.24-27.76-33.69-72.39-38.49-80.23-4.65-7.59-12.63-11.81-14.55-12.09.31-3.32.39-6.93.19-10.98-.02-.32-.05-.65-.08-.98.76.24,1.57.36,2.44.32,4.56-.23,8.93-4.49,9.72-9.05.12.18.24.35.36.54.23.34.16-2.67.25-3.37.11-.63,1.54.75,1.56.13.09-2.75-3.07-5.87-7.31-7.59-1.39-.78-2.94-1.25-4.59-1.18-.2-.02-.38-.07-.57-.08l.22.14c-2.42.23-4.54,1.54-6.07,3.4-3.03-7.34-7.65-13.86-13.46-17.92.45,0,.9-.02,1.35,0-.83-1.58-2.41-3.48-3.54-3.04-3.74,1.46-2.31-.46,1.84-2.88.69-.4-5.14-.48-6.48-.75-1.19-.24,1.57-2.9.38-2.98-3.84-.26-7.75,1.84-10.8,5.7-10.95,2.17-18.21,12.82-21.53,24.97-1.83-3.41-5.31-5.88-9.2-5.69-.79.03-1.55.21-2.27.45.18-.46.54-1.15,1.05-1.95.24-.37-2.65,1.05-3.39,1.25-.65.18.06-1.83-.56-1.57-2.72,1.16-4.37,5.67-4.12,10.59-.12.63-.18,1.26-.21,1.91-9.64-2.03-18.83-3.2-26.62-3.08-3.63-8.97-13.07-13.92-21.71-11.09-4.44,1.44-7.82,4.67-9.77,8.73-3.08.45-4.77,1.28-5.01,3.99L9.07,26.54c-.06-2.82-1.06-5.05-2.28-5.05-1.09,0-2.02,1.79-2.24,4.19l-4.55-.86,1.96,1.16,2.4,1.49c0,2.92,1.17,4.6,2.43,4.6,1.1,0,1.94-1.3,2.17-3.69l120.03,26.58c.61.52,1.35.95,2.15,1.26.17,1.06.4,2.12.74,3.18,2.53,7.74,9.25,12.82,16.43,13.17,6.95,8.23,18.86,17.41,35.03,21.15,1.69.39,3.39.73,5.07,1.03-5.26,7.98-10.75,15.35-13.24,21.64-5.05,12.74-2.51,26.85,5.55,38.31-.15-.15-.33-.28-.48-.45-.63-.64-2.76-2.5-3.32-3.18-.59,1.58,1.13,5.16,2.06,5.84,2.96,2.19.68,1.66-3.62.23-.71-.24,2.85,3.93,3.5,5.05.57.99-3.03.69-2.35,1.58,1.53,2,4.32,3.18,7.71,3.58-12.45,16.18-30.67,26.6-50.39,29.49-13.55,1.97-27.76.4-41.32-5.32-20.34-8.57-33.54-26.89-36.51-47.26-1.54-10.59-.31-21.7,4.15-32.31,6.67-15.8,20.9-26.04,36.72-28.37,8.25-1.2,16.86-.25,25.12,3.24,12.18,5.13,20.07,16.09,21.86,28.29.92,6.35.19,12.99-2.49,19.35-3.91,9.27-17.25,17.71-17.25,17.71-2.62.38-9.63,3.26-15.47,5.81-3.45-.05-6.81-1.04-9.74-2.83,1.3,1.95,2.94,3.68,4.71,5.08-2.38,1.07-3.95,1.8-3.95,1.8,7.23,3.06,14.89,3.92,22.15,2.85,13.91-2.02,26.49-11.1,32.36-25.01,3.69-8.74,4.72-17.99,3.44-26.76-2.44-16.82-13.41-32.01-30.22-39.11-10.63-4.48-21.86-5.74-32.53-4.17-20.44,2.96-38.9,16.3-47.53,36.73-5.48,12.98-7,26.71-5.1,39.71,3.64,24.98,19.91,47.53,44.87,58.07,15.93,6.72,32.76,8.59,48.72,6.26h.04c24.95-3.64,47.9-17.58,62.53-39.17,7.26,5.64,18.61,9.16,31.78,9.6.97,1.11,1.82,2.49,2.41,4.25,3.02,9.18,17.57,3.42,9.6,26.01-1.75,4.97-5.73,14.17-2.83,17.36-58.88,15.9-107.49,28.83-107.49,28.83l-10.74,16.11s79.68-22.26,160.44-44.35c34.97,33.39,68.72,65.4,70.62,66.4,25.59,13.53,35.97-2.26,12.96-12.47-2.43-1.08-30.92-28.82-62.27-59.76,68.4-18.63,141.84-36.31,152.76-39.84,19.55-6.33,32.06-36.61-3.62-14.29M256.21,64.55c.51,10.54-7.62,19.49-18.15,20-10.53.5-19.48-7.61-19.99-18.14-.14-2.83.35-5.56,1.34-8.03-2.84-1.97-4.76-5.19-4.94-8.91-.31-6.37,4.6-11.79,10.98-12.09,4.91-.24,9.1-.46,10.97,3.78,1.45-4.4,5.64-4.59,10.56-4.83,6.37-.31,11.78,4.61,12.09,10.98.2,4.03-1.7,7.68-4.72,9.88,1.07,2.24,1.73,4.73,1.86,7.36M265.61,57.37c-.51-4.77-1.72-9.65-3.54-14.24-.01-.03-.02-.06-.03-.09,1.17-1.04,2.61-1.72,4.21-1.79.07,0,.13,0,.19,0,4.01-.07,7.43,3.62,7.62,7.65.18,4.06-3.64,8.31-7.69,8.6-.04,0-.09.01-.14.02-.21.01-.41-.02-.61-.03,0-.04-.01-.08-.02-.12M298.62,212.57c.2-1.11.23-2.24-.07-3.34-.86-3.16-3.73-5.37-7.45-6.31-.24-3.02-.38-5.83-.52-8.65-.17-3.69,2.2-10.83,3.46-17.83,2.6,4.58,4.81,8.13,6.29,9.93.71.88,1.3,1.73,1.81,2.58-3.53,2.79-5.52,6.98-4.88,11.32.72,4.94,4.65,8.68,9.72,10-2.8.76-5.58,1.52-8.38,2.29"/>
  </g>
  <path d="M221.92,48.71c-.29.64-.45,1.33-.42,2.08.11,2.49,2.23,4.4,4.72,4.28,2.48-.11,4.4-2.23,4.28-4.71-.02-.39-.1-.74-.2-1.11-3.44,0-6.38-.21-8.38-.54"/>
  <path d="M239.12,48.89c-.21.54-.31,1.15-.27,1.77.13,2.49,2.24,4.41,4.72,4.29,2.5-.12,4.4-2.23,4.28-4.71-.04-.9-.36-1.71-.83-2.39-2.11.43-4.84.8-7.9,1.05"/>
  <path d="M240.98,69.69c-1.27.06-2.26,1.15-2.2,2.42.07,1.28,1.15,2.26,2.43,2.19,1.28-.06,2.26-1.15,2.19-2.42-.06-1.28-1.14-2.26-2.42-2.19"/>
  <path d="M234.06,70.36c-1.27.07-2.25,1.15-2.19,2.43.06,1.28,1.14,2.26,2.42,2.2,1.27-.06,2.26-1.15,2.2-2.42-.06-1.28-1.14-2.27-2.43-2.2"/>
</svg>