<?xml version="1.0" encoding="UTF-8"?><svg id="Layer_1" xmlns="http://www.w3.org/2000/svg" viewBox="0 0 400 600"><path d="M211.13,302.14c1.33-3.91,2.63-7.65,3.87-11.42.26-.79.63-1.02,1.43-1.01,2.22.06,4.44.02,6.82.02-.67,1.83-1.28,3.52-1.91,5.2-1.51,4.05-3.06,8.09-4.52,12.15-.69,1.92-1.88,3.13-3.93,3.39-2.13.27-3.99-.26-5.3-2.09-2.6-3.65-5.17-7.32-7.76-10.99-.15-.21-.29-.42-.49-.71-.2.22-.37.39-.51.58-2.56,3.65-5.1,7.31-7.68,10.93-1.54,2.17-4.13,2.91-6.61,1.96-1.17-.45-2.01-1.23-2.46-2.44-2.08-5.69-4.17-11.38-6.26-17.07-.09-.24-.14-.49-.24-.87.36-.02.66-.06.96-.07,2.03,0,4.07.03,6.1-.02.76-.02,1.05.27,1.27.96,1.19,3.68,2.43,7.35,3.66,11.02.03.09.1.16.23.38.22-.29.4-.52.57-.76,2.13-3.19,4.43-6.29,6.33-9.61,1.78-3.11,7.76-3.1,9.57.11,1.89,3.34,4.18,6.44,6.3,9.64.14.21.3.41.53.71" fill="#221f20"/><path d="M173.62,294.9c-1.58-2.46-4.04-3.64-6.75-4.35-4.92-1.31-9.95-1.38-14.99-1.05-3.33.22-6.61.69-9.67,2.18-5.03,2.45-6.75,8.65-3.72,13.35,1.27,1.96,3.17,3.09,5.31,3.85,3.94,1.42,8.07,1.61,12.84,1.68,1.08-.05,2.79-.09,4.49-.24,2.99-.26,5.95-.76,8.69-2.09,5.03-2.45,6.8-8.62,3.79-13.33ZM166.55,302.23c-.52,1.19-1.48,1.9-2.69,2.17-1.41.32-2.85.6-4.29.66-3.61.14-7.23.33-10.79-.5-1.47-.34-2.85-.98-3.29-2.54-.97-3.41-.09-6.12,3.61-6.74,2.31-.39,4.67-.46,7.02-.68,2.31.21,4.6.29,6.86.67,3.48.6,5.02,3.7,3.59,6.96Z" fill="#221f20"/><path d="M310.95,310.1h-8c-.03-.29-.08-.57-.08-.85,0-2.84.03-5.68-.02-8.52-.01-.87.29-1.07,1.13-1.07,7.13.03,14.26.04,21.4-.01,1.07,0,2.16-.31,3.19-.63.74-.23,1.24-.82,1.22-1.68-.02-.85-.5-1.46-1.24-1.69-.97-.29-2.01-.54-3.02-.54-7.1-.04-14.2-.03-21.3-.03h-1.32c.54-.59.86-.97,1.21-1.33,1.13-1.16,2.23-2.34,3.41-3.44.33-.31.88-.57,1.33-.57,5.74-.04,11.49-.06,17.23,0,2.96.03,5.86.45,8.53,1.85,2.31,1.21,3.67,3.04,3.52,5.74-.15,2.68-1.74,4.36-4.06,5.43-.72.34-1.5.53-2.28.81,2.61,2.13,5.19,4.23,7.95,6.48-.46.06-.7.11-.93.11-3.03,0-6.07.03-9.1-.02-.46,0-1-.24-1.35-.54-1.55-1.37-3.01-2.83-4.56-4.2-.35-.31-.89-.55-1.35-.56-3.52-.05-7.04,0-10.56-.04-.8-.01-.98.29-.96,1.01.04,1.41.01,2.82.01,4.29" fill="#221f20"/><path d="M99.18,294.6c1.65-1.54,3.28-3.09,4.95-4.61.2-.19.59-.26.89-.26,5.87,0,11.75-.05,17.63.02,2.92.03,5.79.51,8.41,1.93,3.44,1.86,4.41,5.89,2.14,8.89-1.07,1.42-2.58,2.21-4.26,2.69-.31.09-.6.18-.92.27,2.63,2.15,5.22,4.27,7.99,6.53-.52.04-.79.08-1.06.08-2.97,0-5.94.03-8.91-.02-.49,0-1.07-.23-1.44-.56-1.52-1.35-2.96-2.79-4.48-4.14-.37-.33-.95-.59-1.44-.59-3.52-.05-7.04-.01-10.56-.05-.71,0-.88.26-.86.9.03,1.44.01,2.89.01,4.46h-4.94c-.74,0-1.49-.06-2.23.01-.81.08-.97-.27-.96-1,.03-2.81.04-5.62,0-8.43-.02-.85.23-1.09,1.09-1.08,7.1.03,14.21.04,21.31,0,1.07,0,2.17-.29,3.2-.6.76-.23,1.36-.8,1.33-1.71-.02-.88-.59-1.5-1.35-1.72-1.01-.29-2.08-.5-3.12-.51-7.01-.04-14.02-.02-21.02-.02h-1.11c-.1-.17-.2-.33-.3-.49" fill="#221f20"/><path d="M256.17,305.16c-1.55,1.59-3.1,3.19-4.68,4.75-.22.22-.64.29-.97.29-7.79.02-15.57.01-23.35.02-.53,0-.93,0-.93-.74.02-6.46.02-12.91.03-19.37,0-.06.03-.12.06-.28h29.83c-.44.48-.79.87-1.15,1.25-1.1,1.13-2.18,2.3-3.34,3.37-.38.35-.99.62-1.5.63-4.91.05-9.82.05-14.72,0-.99-.01-1.08.42-1.1,1.21-.02.85.19,1.18,1.13,1.18,6.04-.04,12.07-.02,18.11-.02.34,0,.68.03,1.02.05.06.1.12.21.18.31-1.46,1.4-2.91,2.82-4.41,4.17-.23.22-.73.21-1.1.21-4.59.02-9.17.04-13.76,0-.97-.01-1.29.32-1.17,1.22.03.19.03.39,0,.58-.07.69.17,1.04.92.96.42-.05.84,0,1.26,0h19.53c.03.08.05.16.08.24" fill="#221f20"/><path d="M257.04,310.14c1.93-2.16,3.7-4.13,5.46-6.1,3.56-3.96,7.14-7.89,10.65-11.9,2.22-2.54,4.89-3.42,8.07-2.36.94.31,1.88.94,2.54,1.67,4.96,5.56,9.85,11.19,14.76,16.79.5.57.99,1.16,1.59,1.84-.34.06-.51.11-.68.11-2.71,0-5.42.03-8.14-.02-.42,0-1-.24-1.21-.57-1.33-2.07-3.16-2.61-5.57-2.49-3.99.21-8,.06-12.01.05-.37,0-.75-.03-1.36-.06,1.66-1.8,3.14-3.44,4.67-5.04.18-.19.59-.21.9-.21,1.75-.02,3.49,0,5.23-.01.31,0,.61-.03,1.13-.07-1.49-1.74-2.84-3.33-4.29-5.03-.29.26-.57.48-.81.75-3.56,3.96-7.11,7.93-10.64,11.91-.49.54-.98.82-1.73.81-2.49-.05-4.97-.02-7.46-.02-.28,0-.56-.03-1.09-.07" fill="#221f20"/><path d="M61.06,294.79c1.65-1.62,3.29-3.25,4.96-4.83.2-.19.59-.21.9-.21,5.56-.01,11.11-.04,16.66,0,2.9.02,5.73.52,8.27,2.04,4.53,2.71,4.62,8.28.12,11.04-1.13.7-2.45,1.2-3.75,1.5-1.62.37-3.31.59-4.98.62-4.42.08-8.85.05-13.26,0-.82,0-1.07.26-1.03,1.05.06,1.34.02,2.69.02,4.1h-7.97c-.02-.4-.05-.74-.05-1.09,0-2.68,0-5.36,0-8.04,0-1.28,0-1.28,1.25-1.28,7.01,0,14.01.02,21.02-.03.94,0,1.9-.3,2.79-.61.76-.26,1.26-.98,1.06-1.76-.16-.61-.62-1.37-1.15-1.61-.88-.39-1.92-.56-2.9-.56-6.91-.04-13.81-.02-20.73-.02h-1.05c-.06-.11-.11-.21-.17-.31" fill="#221f20"/></svg>